#!OML:ASF H:\GeneralSubjects\Female5\Project 1\Capture day 1\Session 1\Female5.ASF
:FULLY-SPECIFIED
:DEGREES
394
root 5.30235 17.193 6.76238 39.2898 82.1513 18.3588
lowerback 6.56884 -0.0493161 0.916351
upperback -12.8841 0.668592 0.668078
thorax -18.3749 0.447753 0.0449673
lowerneck -16.5057 -2.86714 -0.714888
upperneck 36.7912 -3.041 0.111292
head 15.8064 -0.948462 -0.258306
rclavicle -3.04141e-014 1.90833e-014
rhumerus 10.9636 23.4216 -44.925
rradius 85.0339
rwrist -0.611366
rhand -33.1437 -9.04595
rfingers 7.12502
rthumb -6.35294 -38.9307
lclavicle -3.04141e-014 1.90833e-014
lhumerus 21.2821 -7.11658 41.0073
lradius 88.0842
lwrist 0.290694
lhand -41.2318 28.5344
lfingers 7.12502
lthumb -14.155 58.0322
rfemur -5.03056 5.25933 24.5274
rtibia 15.8744
rfoot 8.4924 -20.3102
rtoes -17.8741
lfemur 10.3421 -2.52453 -30.236
ltibia 16.7426
lfoot -30.036 27.2004
ltoes -24.1308
395
root 5.86726 17.5126 6.83413 40.115 82.8107 20.7751
lowerback 5.37068 -0.350292 0.891515
upperback -12.8494 0.199869 0.399191
thorax -17.5111 0.215614 -0.145964
lowerneck -15.1663 -3.13397 -0.242415
upperneck 38.0865 -3.61577 0.498919
head 16.1403 -0.992397 -0.24603
rclavicle -8.84592e-015 9.54166e-015
rhumerus 4.59569 26.687 -48.3179
rradius 82.7787
rwrist 0.251385
rhand -32.3815 -9.16418
rfingers 7.12502
rthumb -5.61707 -39.0697
lclavicle -8.84592e-015 9.54166e-015
lhumerus 18.6542 -10.1646 42.2915
lradius 87.2077
lwrist -0.375579
lhand -41.0405 28.5938
lfingers 7.12502
lthumb -13.9707 58.1044
rfemur -1.69001 5.49623 25.4725
rtibia 14.6221
rfoot 12.4287 -26.0889
rtoes -11.2731
lfemur 10.5097 -0.595123 -29.3879
ltibia 21.8243
lfoot -29.125 27.1905
ltoes -25.8455
396
root 6.39398 17.8034 6.90895 39.8 83.6763 22.1019
lowerback 4.62229 -0.651786 0.977571
upperback -12.5658 -0.258107 0.215068
thorax -16.6474 -0.0293679 -0.312241
lowerneck -14.0849 -3.29776 0.348586
upperneck 38.9463 -4.03567 0.736977
head 16.3147 -0.990473 -0.292861
rclavicle -6.95746e-015 1.94809e-014
rhumerus -2.03244 29.6904 -52.9914
rradius 79.3292
rwrist 1.1565
rhand -31.6283 -9.55449
rfingers 7.12502
rthumb -4.88984 -39.4781
lclavicle -6.95746e-015 1.94809e-014
lhumerus 15.7738 -13.6488 44.3357
lradius 85.702
lwrist -1.375
lhand -40.7779 28.6414
lfingers 7.12502
lthumb -13.7175 58.1693
rfemur 0.413769 4.48798 26.6563
rtibia 15.1592
rfoot 14.9526 -30.8099
rtoes -3.87848
lfemur 9.69078 1.13274 -28.2329
ltibia 28.3453
lfoot -27.4681 25.7925
ltoes -26.4821
397
root 6.87935 18.0559 6.98072 38.0872 84.5979 22.072
lowerback 4.43198 -0.900625 1.17169
upperback -12.0496 -0.63662 0.105195
thorax -15.8769 -0.253597 -0.472447
lowerneck -13.2141 -3.38603 0.909802
upperneck 39.4195 -4.30222 0.860932
head 16.3372 -0.964049 -0.361358
rclavicle 7.45443e-016 1.31198e-014
rhumerus -8.64342 31.826 -58.6004
rradius 74.7622
rwrist 2.04777
rhand -30.8256 -10.1247
rfingers 7.12502
rthumb -4.1147 -40.0648
lclavicle 7.45443e-016 1.31198e-014
lhumerus 12.6723 -17.228 47.1603
lradius 83.2622
lwrist -2.6807
lhand -40.4351 29.04
lfingers 7.12502
lthumb -13.3872 58.5899
rfemur 1.38912 2.40547 27.773
rtibia 17.2282
rfoot 16.1957 -33.7516
rtoes 2.06172
lfemur 8.25177 2.44117 -27.0749
ltibia 35.1071
lfoot -25.4536 23.4801
ltoes -26.5464
